<svg id="Layer_1" data-name="Layer 1" xmlns="http://www.w3.org/2000/svg" viewBox="0 0 512 502.2"><defs><style>.cls-1{fill:#fff;}</style></defs><path class="cls-1" d="M277.29,274a8.27,8.27,0,0,0-11.7,0,34.51,34.51,0,0,1-48.75,0,8.27,8.27,0,1,0-11.7,11.7,51.07,51.07,0,0,0,72.15,0A8.27,8.27,0,0,0,277.29,274Z"/><path class="cls-1" d="M192.1,205.66a8.28,8.28,0,0,0-8.28,8.27v13.24a8.28,8.28,0,0,0,16.55,0V213.93A8.27,8.27,0,0,0,192.1,205.66Z"/><path class="cls-1" d="M315.09,176.09a35,35,0,0,0-49.54,0,8.28,8.28,0,1,0,11.71,11.7,18.48,18.48,0,0,1,26.13,0,8.27,8.27,0,1,0,11.7-11.7Z"/><path class="cls-1" d="M216.87,176.09a35,35,0,0,0-49.54,0,8.27,8.27,0,0,0,11.7,11.7,18.49,18.49,0,0,1,26.14,0,8.27,8.27,0,0,0,11.7-11.7Z"/><path class="cls-1" d="M290.32,205.66a8.27,8.27,0,0,0-8.27,8.27v13.24a8.28,8.28,0,0,0,16.55,0V213.93A8.28,8.28,0,0,0,290.32,205.66Z"/><path class="cls-1" d="M361.47,485.65H129.23V389.79a52.54,52.54,0,0,1,25.48-45.22,8.28,8.28,0,0,0-8.59-14.15,69,69,0,0,0-33.43,59.37V493.92A8.28,8.28,0,0,0,121,502.2H361.47a8.28,8.28,0,0,0,0-16.55Z"/><path class="cls-1" d="M363.24,360.45a69.42,69.42,0,0,0-26.95-30,8.28,8.28,0,0,0-8.59,14.15,52.89,52.89,0,0,1,20.55,22.88,8.27,8.27,0,1,0,15-7Z"/><path class="cls-1" d="M289.9,355.7a8.28,8.28,0,0,0-8.28,8.27,40.41,40.41,0,1,1-80.81,0,8.28,8.28,0,0,0-16.55,0,57,57,0,1,0,113.91,0A8.27,8.27,0,0,0,289.9,355.7Z"/><path class="cls-1" d="M253.9,193.52a8.28,8.28,0,0,0-8.28,8.28V241a4.41,4.41,0,1,1-8.82,0V201.8a8.28,8.28,0,1,0-16.55,0V241a21,21,0,1,0,41.92,0V201.8A8.28,8.28,0,0,0,253.9,193.52Z"/><path class="cls-1" d="M462.91,380.93a8.28,8.28,0,1,0,0,16.55,32.55,32.55,0,1,1-29.36,46.61,8.29,8.29,0,0,0-7.46-4.69H392.21a8.27,8.27,0,0,0-7.46,4.69,32.55,32.55,0,1,1-29.36-46.61H433a8.28,8.28,0,1,0,0-16.55H355.39a49.1,49.1,0,1,0,41.69,75h24.13a49.1,49.1,0,1,0,41.7-75Z"/><path class="cls-1" d="M368.63,421.75h-6.07v-6.07a8.28,8.28,0,0,0-16.55,0v6.07h-6.07a8.28,8.28,0,0,0,0,16.55H346v6.06a8.28,8.28,0,1,0,16.55,0V438.3h6.07a8.28,8.28,0,0,0,0-16.55Z"/><path class="cls-1" d="M381.58,121c-2.42-37.11-18.83-86.71-83.26-112.24-24.19-9.59-50-11.37-72.73-5C205.82,9.25,190.4,20.3,182.53,34.4c-12.3,2.68-47,12.84-64.76,44.47-15.08,26.85-13.83,61.66,3.67,103.47l-5,51.91a92.13,92.13,0,0,0,37.4,83.08l45.29,32.91a71.45,71.45,0,0,0,84.2,0l45.29-32.91A92.13,92.13,0,0,0,366,234.25l-3.3-34.17a7.93,7.93,0,0,0,1,.06,7.09,7.09,0,0,0,.79,0,8.26,8.26,0,0,0,7-5.32C371.94,193.39,384.15,160.39,381.58,121ZM132.13,87.09c9.72-17.4,26.48-27,39.34-32a93.81,93.81,0,0,0-4.76,54.7c-.32,9.69-7.61,24.12-20.66,40.8-4.66,6-9.37,11.33-13.21,15.5C121.12,133.78,120.87,107.24,132.13,87.09ZM318.87,303.94l-45.29,32.91a55,55,0,0,1-64.74,0l-45.29-32.91a75.52,75.52,0,0,1-30.66-68.09l4.93-51c8.16-8.13,32.87-34,42-58.71,11.69,10.26,32.06,23.25,60.27,23.25,8.8,0,17.21-2.84,25.33-5.58,12.31-4.15,23.94-8.06,37.54-3.27,13,4.57,26.44,16.55,40.85,36.4l5.69,58.9A75.52,75.52,0,0,1,318.87,303.94Zm41.81-131.82c-17.79-25.61-35-41.1-52.2-47.18a54.25,54.25,0,0,0-18.22-3.12c-11.35,0-21.43,3.4-30.11,6.32-7.17,2.42-13.95,4.71-20,4.71-32.84,0-52.73-21.62-57.37-27.28-6.79-34.06,11-57.52,11.85-58.68h0v0a8.14,8.14,0,0,0,1.06-1.78C200.63,33.8,213.47,24.3,230,19.67c19.25-5.38,41.33-3.79,62.18,4.48C337.32,42,361.82,74.8,365,121.58,366.39,141.3,363.54,159.59,360.68,172.12Z"/><path class="cls-1" d="M99,254.11a8.27,8.27,0,0,0-11.7,11.7,51.74,51.74,0,0,1-66.86,78.55l36.12-36.11a8.29,8.29,0,0,0,0-11.71L20.44,260.42a51.68,51.68,0,0,1,49.75-6,8.27,8.27,0,0,0,6.22-15.33,68.2,68.2,0,0,0-74,15,8.27,8.27,0,0,0,0,11.7L39,302.39,2.42,339a8.27,8.27,0,0,0,0,11.7A68.29,68.29,0,0,0,99,254.11Z"/><path class="cls-1" d="M442,182.35h0A60.74,60.74,0,0,0,381.32,243v48h0v23.16a8.27,8.27,0,1,0,16.54,0V299.29h18.39v14.89a8.28,8.28,0,1,0,16.55,0V299.29h18.39v14.89a8.28,8.28,0,1,0,16.55,0V299.29h18.38v14.89a8.28,8.28,0,1,0,16.55,0V243A60.74,60.74,0,0,0,442,182.35Zm44.12,100.39H397.86V243a44.13,44.13,0,1,1,88.26,0Z"/><circle class="cls-1" cx="418.28" cy="251.29" r="8.27"/><circle class="cls-1" cx="465.72" cy="251.29" r="8.27"/><circle class="cls-1" cx="462.96" cy="414.57" r="8.27"/><circle class="cls-1" cx="448.62" cy="428.93" r="8.27"/><circle class="cls-1" cx="462.96" cy="443.26" r="8.27"/><circle class="cls-1" cx="477.3" cy="428.92" r="8.27"/><circle class="cls-1" cx="10.08" cy="302.4" r="8.27"/></svg>