<svg id="Calque_1" data-name="Calque 1" xmlns="http://www.w3.org/2000/svg" viewBox="0 0 316.6 90.18"><defs><style>.cls-1{font-size:36px;font-family:Alfarn;}.cls-1,.cls-6{fill:#fff;}.cls-2{letter-spacing:-0.05em;}.cls-3{letter-spacing:-0.01em;}.cls-4{fill:none;}.cls-5{fill:#fcfcfc;}.cls-5,.cls-6{stroke:#fff;stroke-miterlimit:10;}</style></defs><text class="cls-1" transform="translate(0 31.04)"><tspan class="cls-2">G</tspan><tspan x="26.96" y="0">amer</tspan><tspan class="cls-3" x="131.47" y="0">z</tspan><tspan x="154.08" y="0">one</tspan></text><path class="cls-4" d="M316.6,87.93H0V7H316.6Z"/><path class="cls-5" d="M50.24.79H60a2.89,2.89,0,0,1,2.89,2.89V7.3a0,0,0,0,1,0,0H47.65a0,0,0,0,1,0,0V3.38A2.59,2.59,0,0,1,50.24.79Z"/><path class="cls-6" d="M47.65,33.58H62.84a0,0,0,0,1,0,0v3.34a3.17,3.17,0,0,1-3.17,3.17H50.12a2.46,2.46,0,0,1-2.46-2.46v-4A0,0,0,0,1,47.65,33.58Z"/><path class="cls-6" d="M183.61,33.29A7.39,7.39,0,0,1,176,40.38a8.57,8.57,0,0,1-5.7-2.35,7,7,0,0,1-2-4.74"/><path class="cls-6" d="M183.76,7.59A7.39,7.39,0,0,0,176.1.5a8.54,8.54,0,0,0-5.7,2.35,7,7,0,0,0-2,4.74"/></svg>