<?xml version="1.0" encoding="UTF-8"?><svg id="a" xmlns="http://www.w3.org/2000/svg" viewBox="0 0 194.28 201.58"><path d="M194.26,45.2c0-.46-.05-.91-.14-1.35-.01-.07-.04-.13-.05-.2-.08-.37-.2-.73-.34-1.08-.05-.14-.11-.27-.17-.4-.13-.29-.28-.57-.46-.84-.07-.11-.13-.23-.21-.33-.25-.35-.52-.7-.83-1.01h-.02L154.57,2.24c-1.43-1.43-3.37-2.24-5.4-2.24H44.28c-2.06,0-4.02,.83-5.46,2.31L2.15,40.04c-.3,.3-.55,.63-.79,.98-.07,.1-.12,.2-.18,.3-.18,.28-.33,.57-.47,.87-.06,.13-.12,.27-.17,.4-.13,.33-.23,.67-.31,1.01-.02,.09-.05,.18-.07,.27-.09,.44-.13,.9-.14,1.35,0,.04-.01,.08-.01,.12V193.97c0,4.2,3.41,7.61,7.61,7.61H186.67c4.2,0,7.61-3.41,7.61-7.61V45.34s-.01-.09-.02-.14ZM104.75,15.22h41.26l22.38,22.52h-63.63V15.22Zm-57.25,0h42.03v22.52H25.61L47.5,15.22ZM179.06,186.37H15.22V52.95H179.06V186.37Z"/></svg>